<svg id="svg" version="1.1" xmlns="http://www.w3.org/2000/svg" xmlns:xlink="http://www.w3.org/1999/xlink" width="400" height="400" viewBox="0, 0, 400,400"><g id="svgg"><path id="path0" d="M51.254 78.616 C 50.514 78.937,49.601 79.200,49.226 79.200 C 48.307 79.200,45.316 81.804,44.965 82.910 C 44.810 83.398,44.395 84.008,44.042 84.266 C 43.067 84.979,43.114 91.456,44.100 92.176 C 44.485 92.458,44.800 92.859,44.800 93.067 C 44.800 93.615,46.844 96.000,47.314 96.000 C 47.533 96.000,47.912 96.266,48.156 96.591 C 49.590 98.497,56.819 97.775,59.280 95.479 C 62.440 92.530,64.091 86.549,62.253 84.710 C 61.952 84.409,61.584 83.781,61.436 83.314 C 60.991 81.912,57.665 79.194,56.459 79.246 C 55.625 79.283,55.570 79.335,56.200 79.489 C 57.838 79.892,60.497 82.519,61.453 84.682 C 65.921 94.785,51.531 102.211,45.396 92.967 C 41.446 87.016,45.724 79.225,52.963 79.187 C 55.193 79.176,55.334 79.125,54.624 78.587 C 53.664 77.861,52.978 77.867,51.254 78.616 M82.800 78.600 C 82.250 78.914,81.413 79.178,80.941 79.186 C 79.913 79.203,76.545 82.114,76.164 83.314 C 76.016 83.781,75.648 84.409,75.347 84.710 C 74.554 85.503,74.595 90.932,75.400 91.600 C 75.730 91.874,76.000 92.367,76.000 92.695 C 76.000 93.805,79.862 97.073,81.492 97.342 C 84.815 97.891,89.600 97.324,89.600 96.381 C 89.600 96.172,89.844 96.000,90.142 96.000 C 90.787 96.000,92.800 93.670,92.800 92.923 C 92.800 92.635,92.973 92.400,93.185 92.400 C 94.427 92.400,94.662 85.113,93.449 84.198 C 93.156 83.978,92.790 83.398,92.635 82.910 C 92.284 81.805,89.294 79.200,88.377 79.200 C 88.003 79.200,87.051 78.930,86.262 78.600 C 84.511 77.869,84.080 77.869,82.800 78.600 M115.200 78.293 C 114.650 78.389,114.029 78.632,113.820 78.834 C 113.611 79.035,113.026 79.200,112.520 79.200 C 112.014 79.200,111.271 79.529,110.869 79.931 C 110.468 80.332,109.838 80.777,109.469 80.918 C 109.101 81.059,108.800 81.451,108.800 81.787 C 108.800 82.124,108.633 82.400,108.429 82.400 C 106.738 82.400,105.547 88.758,106.800 91.096 C 107.240 91.916,107.606 92.771,107.613 92.994 C 107.620 93.217,108.035 93.850,108.535 94.400 C 112.857 99.152,120.609 98.660,124.273 93.400 C 127.384 88.935,124.192 79.290,119.580 79.216 C 119.019 79.207,118.389 79.040,118.180 78.845 C 117.629 78.330,116.349 78.093,115.200 78.293 M89.540 80.558 C 96.595 85.447,94.000 96.334,85.600 97.091 C 76.444 97.915,71.776 87.381,78.583 81.255 C 81.335 78.779,86.498 78.450,89.540 80.558 M119.116 79.576 C 123.935 80.958,126.698 87.541,124.319 91.968 C 120.378 99.302,110.256 98.880,107.531 91.268 C 104.914 83.961,111.440 77.375,119.116 79.576 M24.400 223.920 C 24.400 309.382,24.503 331.551,24.900 331.979 C 25.304 332.414,25.293 332.456,24.838 332.197 C 24.462 331.982,24.371 332.029,24.562 332.338 C 24.719 332.592,25.107 332.800,25.424 332.800 C 25.745 332.800,26.000 333.177,26.000 333.653 C 26.000 334.122,26.594 335.067,27.320 335.753 C 28.046 336.439,28.759 337.312,28.905 337.693 C 29.070 338.126,29.410 338.294,29.809 338.141 C 30.243 337.975,30.519 338.169,30.671 338.748 C 30.793 339.217,31.007 339.618,31.147 339.640 C 31.286 339.661,31.913 339.725,32.540 339.780 C 33.166 339.835,33.839 340.133,34.033 340.440 C 34.228 340.748,34.393 340.820,34.400 340.600 C 34.407 340.380,34.583 340.470,34.792 340.800 C 35.468 341.870,364.507 341.893,365.577 340.823 C 366.005 340.395,366.995 339.925,367.778 339.778 C 368.597 339.624,369.200 339.275,369.200 338.955 C 369.200 338.650,369.383 338.400,369.606 338.400 C 370.181 338.400,373.408 335.195,374.596 333.444 L 375.594 331.973 375.599 224.187 L 375.603 116.400 200.001 116.400 L 24.400 116.400 24.400 223.920 M233.424 166.187 C 233.851 166.510,234.539 166.780,234.954 166.787 C 237.661 166.833,240.646 174.702,238.600 176.400 C 238.270 176.674,238.000 177.212,238.000 177.595 C 238.000 177.978,237.685 178.723,237.300 179.251 C 236.202 180.754,235.629 181.702,235.015 183.032 C 234.702 183.709,234.166 184.496,233.823 184.781 C 233.480 185.065,233.200 185.614,233.200 186.000 C 233.200 186.386,232.937 186.920,232.615 187.187 C 232.294 187.454,231.911 188.051,231.764 188.514 C 231.617 188.976,230.896 190.210,230.162 191.254 C 229.428 192.299,228.711 193.616,228.569 194.182 C 228.427 194.747,228.095 195.343,227.832 195.505 C 227.569 195.667,227.117 196.385,226.828 197.100 C 226.539 197.815,226.145 198.400,225.951 198.400 C 225.758 198.400,225.593 198.625,225.584 198.900 C 225.576 199.175,224.952 200.390,224.198 201.600 C 223.445 202.810,222.570 204.363,222.255 205.051 C 221.940 205.739,221.483 206.425,221.241 206.575 C 220.998 206.725,220.800 207.169,220.800 207.562 C 220.800 207.955,220.440 208.602,220.000 209.000 C 219.560 209.398,219.200 209.939,219.200 210.201 C 219.200 210.463,218.840 211.093,218.400 211.600 C 217.960 212.107,217.600 212.752,217.600 213.033 C 217.600 213.313,217.367 213.781,217.083 214.071 C 216.799 214.362,216.327 215.185,216.035 215.900 C 215.742 216.615,215.362 217.200,215.191 217.200 C 215.019 217.200,214.674 217.695,214.423 218.300 C 214.173 218.905,213.533 220.120,213.001 221.000 C 212.468 221.880,211.764 223.185,211.437 223.900 C 211.109 224.615,210.671 225.200,210.464 225.200 C 210.256 225.200,209.963 225.695,209.812 226.300 C 209.661 226.905,209.303 227.670,209.016 228.000 C 208.729 228.330,208.371 229.005,208.220 229.500 C 208.070 229.995,207.792 230.400,207.604 230.400 C 207.416 230.400,207.054 231.030,206.800 231.800 C 206.546 232.570,206.187 233.200,206.002 233.200 C 205.818 233.200,205.094 234.325,204.393 235.700 C 203.693 237.075,202.733 238.859,202.260 239.664 C 199.426 244.488,198.800 245.623,198.800 245.932 C 198.800 246.121,198.440 246.602,198.000 247.000 C 197.560 247.398,197.200 247.925,197.200 248.171 C 197.200 248.417,196.615 249.514,195.900 250.609 C 195.185 251.704,194.374 253.050,194.098 253.600 C 193.108 255.571,190.594 259.946,190.265 260.270 C 190.080 260.452,189.685 261.185,189.385 261.900 C 189.086 262.615,188.652 263.200,188.420 263.200 C 188.189 263.200,188.000 263.536,188.000 263.946 C 188.000 264.356,187.678 265.121,187.284 265.646 C 186.890 266.171,186.348 267.050,186.080 267.600 C 185.811 268.150,185.238 269.140,184.806 269.800 C 183.800 271.335,182.594 273.463,181.839 275.032 C 181.513 275.709,180.966 276.496,180.623 276.781 C 180.280 277.065,180.000 277.625,180.000 278.025 C 180.000 278.425,179.802 278.875,179.559 279.025 C 179.317 279.175,178.864 279.906,178.554 280.649 C 178.243 281.392,177.826 282.000,177.626 282.000 C 177.427 282.000,177.142 282.552,176.994 283.227 C 176.846 283.902,176.488 284.545,176.198 284.656 C 175.909 284.767,175.568 285.272,175.441 285.778 C 174.468 289.656,167.227 291.238,163.677 288.347 C 161.289 286.403,159.928 281.329,161.400 279.857 C 161.730 279.527,162.000 279.014,162.000 278.718 C 162.000 278.421,162.313 277.733,162.697 277.189 C 163.527 276.010,164.503 274.283,165.345 272.500 C 165.683 271.785,166.148 271.200,166.380 271.200 C 166.611 271.200,166.800 270.864,166.800 270.454 C 166.800 270.044,167.122 269.279,167.516 268.754 C 167.910 268.229,168.452 267.350,168.720 266.800 C 168.989 266.250,169.562 265.260,169.994 264.600 C 171.000 263.065,172.206 260.937,172.961 259.368 C 173.287 258.691,173.834 257.904,174.177 257.619 C 174.520 257.335,174.800 256.775,174.800 256.375 C 174.800 255.975,174.998 255.525,175.241 255.375 C 175.483 255.225,175.936 254.494,176.246 253.751 C 176.557 253.008,176.974 252.400,177.174 252.400 C 177.373 252.400,177.652 251.875,177.793 251.233 C 177.934 250.592,178.308 249.967,178.624 249.846 C 178.941 249.724,179.200 249.323,179.200 248.954 C 179.200 248.585,179.807 247.364,180.548 246.241 C 181.290 245.119,182.467 243.126,183.164 241.814 C 183.861 240.502,184.660 239.152,184.939 238.814 C 185.217 238.476,185.661 237.750,185.924 237.200 C 186.749 235.476,189.300 231.009,189.579 230.800 C 189.725 230.690,190.082 230.015,190.371 229.300 C 190.660 228.585,191.019 228.000,191.168 228.000 C 191.317 228.000,191.667 227.370,191.946 226.600 C 192.224 225.830,192.603 225.200,192.787 225.200 C 192.971 225.200,193.321 224.705,193.566 224.100 C 193.810 223.495,194.445 222.280,194.977 221.400 C 195.510 220.520,196.224 219.260,196.564 218.600 C 196.905 217.940,197.410 217.040,197.687 216.600 C 197.964 216.160,198.787 214.856,199.515 213.702 C 200.244 212.548,201.024 211.077,201.248 210.434 C 201.472 209.791,201.913 209.165,202.228 209.045 C 202.543 208.924,202.800 208.472,202.800 208.041 C 202.800 207.610,203.039 207.018,203.332 206.725 C 203.830 206.227,204.217 205.583,205.813 202.600 C 206.166 201.940,206.889 200.680,207.420 199.800 C 207.950 198.920,208.609 197.750,208.883 197.200 C 209.157 196.650,209.965 195.355,210.677 194.323 C 211.390 193.291,212.085 191.999,212.223 191.452 C 212.360 190.905,212.726 190.361,213.036 190.241 C 213.346 190.122,213.600 189.666,213.600 189.228 C 213.600 188.790,213.923 188.109,214.318 187.716 C 214.713 187.322,215.254 186.550,215.520 186.000 C 216.821 183.313,219.165 179.412,219.558 179.281 C 219.801 179.200,220.000 178.813,220.000 178.421 C 220.000 178.029,220.329 177.279,220.732 176.754 C 221.134 176.229,221.593 175.530,221.751 175.200 C 221.909 174.870,222.476 173.880,223.011 173.000 C 223.546 172.120,224.201 170.950,224.467 170.400 C 225.243 168.792,227.288 166.801,228.178 166.787 C 228.630 166.780,229.349 166.510,229.776 166.187 C 230.204 165.864,231.024 165.600,231.600 165.600 C 232.176 165.600,232.996 165.864,233.424 166.187 M137.464 172.500 C 143.400 176.880,142.499 181.793,134.549 188.400 C 129.485 192.609,126.490 195.174,125.442 196.200 C 124.993 196.640,123.990 197.499,123.213 198.108 C 120.565 200.186,118.631 201.799,117.815 202.610 C 117.367 203.056,116.010 204.225,114.800 205.207 C 113.590 206.190,112.365 207.310,112.077 207.697 C 111.790 208.084,111.301 208.400,110.991 208.400 C 110.682 208.400,110.235 208.760,110.000 209.200 C 109.765 209.640,109.412 210.000,109.218 210.000 C 109.023 210.000,108.167 210.675,107.315 211.500 C 105.730 213.036,102.735 215.611,100.604 217.269 C 99.947 217.781,99.127 218.470,98.782 218.800 C 98.437 219.130,97.393 220.030,96.461 220.800 C 95.529 221.570,94.099 222.792,93.283 223.516 C 92.467 224.239,91.041 225.409,90.112 226.116 C 89.184 226.822,88.419 227.549,88.412 227.731 C 88.392 228.264,94.644 234.000,95.244 234.000 C 95.418 234.000,95.704 234.254,95.880 234.564 C 96.056 234.874,97.357 236.051,98.771 237.180 C 100.185 238.309,102.435 240.214,103.771 241.413 C 106.526 243.887,106.371 243.755,109.715 246.498 C 111.082 247.620,112.497 248.822,112.860 249.169 C 113.222 249.516,114.287 250.430,115.226 251.200 C 116.164 251.970,117.217 252.879,117.566 253.220 C 117.915 253.561,119.726 255.091,121.592 256.620 C 123.457 258.149,125.707 260.072,126.592 260.894 C 129.060 263.187,129.217 263.321,132.100 265.605 C 133.585 266.781,134.800 267.891,134.800 268.072 C 134.800 268.252,135.002 268.400,135.249 268.400 C 135.904 268.400,140.390 273.122,140.827 274.272 C 142.913 279.758,135.785 287.297,131.389 284.254 C 130.955 283.954,130.150 283.568,129.600 283.398 C 129.050 283.228,128.230 282.709,127.778 282.244 C 126.643 281.077,124.812 279.497,120.602 276.051 C 118.621 274.430,116.503 272.585,115.897 271.951 C 115.290 271.318,114.624 270.800,114.416 270.800 C 114.209 270.800,113.896 270.560,113.720 270.267 C 113.544 269.974,111.869 268.489,109.998 266.967 C 108.127 265.445,106.224 263.840,105.769 263.400 C 104.534 262.206,102.507 260.451,99.601 258.062 C 96.741 255.710,93.018 252.537,92.020 251.600 C 91.668 251.270,89.855 249.748,87.990 248.218 C 86.126 246.688,83.946 244.798,83.147 244.018 C 82.347 243.238,81.289 242.330,80.795 242.000 C 80.300 241.670,78.996 240.592,77.895 239.604 C 76.795 238.616,75.404 237.446,74.805 237.004 C 70.451 233.790,68.587 227.486,70.855 223.647 C 71.908 221.866,75.913 217.981,81.089 213.721 C 82.479 212.577,83.875 211.407,84.193 211.121 C 84.794 210.577,87.341 208.351,89.400 206.568 C 90.060 205.997,91.500 204.805,92.600 203.920 C 93.700 203.035,94.744 202.061,94.920 201.756 C 95.096 201.450,95.403 201.200,95.602 201.200 C 95.801 201.200,96.381 200.795,96.892 200.300 C 98.343 198.894,102.408 195.433,103.005 195.096 C 103.301 194.929,104.264 194.119,105.145 193.296 C 106.027 192.473,107.179 191.440,107.705 191.000 C 108.231 190.560,109.795 189.210,111.179 188.000 C 112.564 186.790,113.959 185.648,114.280 185.463 C 114.600 185.277,115.467 184.557,116.206 183.863 C 117.649 182.507,118.365 181.890,121.385 179.400 C 122.452 178.520,123.723 177.395,124.209 176.900 C 124.694 176.405,125.212 176.000,125.359 176.000 C 125.506 176.000,126.257 175.370,127.027 174.600 C 127.797 173.830,128.573 173.200,128.751 173.200 C 128.930 173.200,129.402 172.840,129.800 172.400 C 130.902 171.183,135.765 171.246,137.464 172.500 M270.293 172.400 C 270.670 172.840,271.201 173.200,271.475 173.200 C 271.748 173.200,272.165 173.560,272.400 174.000 C 272.635 174.440,273.077 174.800,273.381 174.800 C 273.685 174.800,273.993 174.964,274.067 175.165 C 274.140 175.367,275.370 176.492,276.801 177.665 C 280.169 180.430,281.950 181.985,283.024 183.100 C 283.501 183.595,284.096 184.000,284.346 184.000 C 284.596 184.000,284.801 184.135,284.803 184.300 C 284.804 184.465,285.914 185.500,287.268 186.600 C 289.818 188.672,292.064 190.604,294.123 192.500 C 294.781 193.105,295.472 193.600,295.659 193.600 C 295.847 193.600,296.000 193.870,296.000 194.200 C 296.000 194.530,296.206 194.800,296.457 194.800 C 296.837 194.800,299.195 196.624,302.000 199.087 C 302.330 199.376,303.363 200.285,304.295 201.107 C 307.134 203.607,307.284 203.735,309.792 205.800 C 312.657 208.159,313.055 208.499,315.411 210.600 C 318.361 213.231,318.473 213.326,320.983 215.332 C 322.312 216.395,323.985 217.880,324.699 218.632 C 325.414 219.384,326.113 220.000,326.253 220.000 C 327.761 220.000,330.000 224.760,330.000 227.967 C 330.000 232.582,328.786 234.267,320.608 241.000 C 317.783 243.326,317.323 243.720,315.237 245.600 C 312.642 247.939,309.951 250.179,309.260 250.574 C 308.901 250.780,308.044 251.545,307.356 252.274 C 306.668 253.003,305.992 253.600,305.853 253.600 C 305.714 253.600,304.890 254.275,304.021 255.100 C 301.762 257.245,298.777 259.774,298.291 259.954 C 298.063 260.039,297.320 260.714,296.641 261.454 C 295.961 262.194,295.246 262.800,295.050 262.800 C 294.854 262.800,294.133 263.386,293.447 264.102 C 292.761 264.819,291.390 266.020,290.400 266.772 C 289.410 267.524,288.420 268.333,288.200 268.571 C 287.980 268.809,286.810 269.812,285.600 270.800 C 284.390 271.788,283.220 272.796,283.000 273.040 C 282.780 273.283,281.430 274.434,280.000 275.596 C 278.570 276.759,277.256 277.955,277.080 278.255 C 276.904 278.555,276.583 278.800,276.367 278.800 C 276.150 278.800,275.371 279.402,274.634 280.139 C 273.898 280.875,273.004 281.590,272.648 281.726 C 272.292 281.863,272.000 282.147,272.000 282.358 C 272.000 282.948,267.799 284.800,266.462 284.800 C 264.852 284.800,261.208 282.855,260.691 281.720 C 260.460 281.214,260.127 280.800,259.951 280.800 C 258.748 280.800,258.645 273.788,259.841 273.329 C 260.149 273.211,260.400 272.908,260.400 272.656 C 260.400 272.204,262.517 270.000,262.951 270.000 C 263.073 270.000,263.765 269.415,264.489 268.700 C 265.213 267.985,267.334 266.149,269.202 264.620 C 271.071 263.091,272.902 261.561,273.271 261.220 C 273.640 260.879,274.783 259.880,275.811 259.000 C 276.840 258.120,278.518 256.640,279.541 255.711 C 280.563 254.783,281.535 254.018,281.700 254.011 C 281.865 254.005,282.697 253.325,283.548 252.500 C 285.587 250.525,291.981 245.037,292.444 244.866 C 292.643 244.792,293.502 244.072,294.352 243.266 C 295.811 241.883,298.648 239.436,303.011 235.800 C 306.376 232.995,306.791 232.632,308.551 230.954 C 309.500 230.048,310.461 229.238,310.686 229.154 C 311.778 228.742,311.535 227.380,310.187 226.355 C 308.079 224.752,305.291 222.361,303.595 220.700 C 302.752 219.875,301.884 219.200,301.665 219.200 C 301.446 219.200,301.207 219.036,301.133 218.835 C 301.060 218.633,299.830 217.500,298.400 216.316 C 295.319 213.764,293.377 212.096,292.211 211.000 C 291.743 210.560,289.839 208.949,287.980 207.421 C 284.811 204.816,284.055 204.163,281.000 201.392 C 280.340 200.794,279.170 199.831,278.400 199.252 C 277.630 198.673,276.804 198.020,276.565 197.800 C 276.326 197.580,275.278 196.680,274.237 195.800 C 273.196 194.920,271.664 193.525,270.834 192.700 C 270.004 191.875,269.191 191.200,269.028 191.200 C 268.636 191.200,264.061 187.159,261.369 184.435 C 257.489 180.508,257.940 175.892,262.536 172.500 C 264.240 171.243,269.247 171.178,270.293 172.400 " stroke="none" fill="#94dcfc" fill-rule="evenodd"></path><path id="path1" d="M33.650 59.497 C 33.435 59.880,33.021 60.213,32.730 60.236 C 32.438 60.259,31.897 60.306,31.527 60.339 C 31.157 60.373,30.741 60.756,30.603 61.192 C 30.464 61.627,30.227 61.966,30.076 61.945 C 29.177 61.817,28.741 62.069,28.945 62.600 C 29.083 62.961,28.947 63.200,28.602 63.200 C 28.042 63.200,27.137 64.454,27.242 65.084 C 27.379 65.907,27.149 66.400,26.627 66.400 C 25.937 66.400,25.544 67.471,25.781 68.702 C 25.912 69.384,25.767 69.600,25.177 69.600 C 24.417 69.600,24.400 70.097,24.400 93.000 L 24.400 116.400 200.000 116.400 L 375.600 116.400 375.600 93.000 C 375.600 72.467,375.526 69.600,375.000 69.600 C 374.474 69.600,374.147 68.299,374.364 67.066 C 374.396 66.882,374.058 66.636,373.611 66.519 C 373.083 66.381,372.800 65.975,372.800 65.353 C 372.800 64.829,372.440 64.040,372.000 63.600 C 371.560 63.160,371.200 62.620,371.200 62.400 C 371.200 62.180,371.020 62.000,370.800 62.000 C 370.580 62.000,370.026 61.626,369.569 61.169 C 369.113 60.713,368.280 60.290,367.719 60.230 C 367.159 60.170,366.533 59.824,366.330 59.461 C 365.741 58.408,34.239 58.444,33.650 59.497 M54.624 78.587 C 55.051 78.910,55.877 79.180,56.459 79.187 C 57.669 79.202,61.010 81.972,61.436 83.314 C 61.584 83.781,61.952 84.409,62.253 84.710 C 64.091 86.549,62.440 92.530,59.280 95.479 C 56.819 97.775,49.590 98.497,48.156 96.591 C 47.912 96.266,47.533 96.000,47.314 96.000 C 46.844 96.000,44.800 93.615,44.800 93.067 C 44.800 92.859,44.485 92.458,44.100 92.176 C 43.114 91.456,43.067 84.979,44.042 84.266 C 44.395 84.008,44.810 83.398,44.965 82.910 C 45.316 81.804,48.307 79.200,49.226 79.200 C 49.601 79.200,50.514 78.937,51.254 78.616 C 52.978 77.867,53.664 77.861,54.624 78.587 M86.262 78.600 C 87.051 78.930,88.003 79.200,88.377 79.200 C 89.294 79.200,92.284 81.805,92.635 82.910 C 92.790 83.398,93.156 83.978,93.449 84.198 C 94.662 85.113,94.427 92.400,93.185 92.400 C 92.973 92.400,92.800 92.635,92.800 92.923 C 92.800 93.670,90.787 96.000,90.142 96.000 C 89.844 96.000,89.600 96.172,89.600 96.381 C 89.600 97.324,84.815 97.891,81.492 97.342 C 79.862 97.073,76.000 93.805,76.000 92.695 C 76.000 92.367,75.730 91.874,75.400 91.600 C 74.595 90.932,74.554 85.503,75.347 84.710 C 75.648 84.409,76.016 83.781,76.164 83.314 C 76.545 82.114,79.913 79.203,80.941 79.186 C 81.413 79.178,82.250 78.914,82.800 78.600 C 84.080 77.869,84.511 77.869,86.262 78.600 M118.180 78.845 C 118.389 79.040,119.019 79.207,119.580 79.216 C 124.192 79.290,127.384 88.935,124.273 93.400 C 120.609 98.660,112.857 99.152,108.535 94.400 C 108.035 93.850,107.620 93.217,107.613 92.994 C 107.606 92.771,107.240 91.916,106.800 91.096 C 105.547 88.758,106.738 82.400,108.429 82.400 C 108.633 82.400,108.800 82.124,108.800 81.787 C 108.800 81.451,109.101 81.059,109.469 80.918 C 109.838 80.777,110.468 80.332,110.869 79.931 C 111.271 79.529,112.014 79.200,112.520 79.200 C 113.026 79.200,113.611 79.035,113.820 78.834 C 114.655 78.029,117.314 78.036,118.180 78.845 M24.555 332.505 C 24.599 333.376,26.000 334.079,26.000 333.229 C 26.000 332.993,25.719 332.800,25.376 332.800 C 25.033 332.800,24.856 332.632,24.983 332.428 C 25.109 332.223,25.055 331.958,24.862 331.838 C 24.668 331.719,24.530 332.019,24.555 332.505 M29.829 338.306 C 30.065 338.468,30.375 338.915,30.517 339.300 C 30.659 339.685,31.006 339.997,31.287 339.994 C 31.629 339.990,31.657 339.890,31.371 339.694 C 31.135 339.532,30.825 339.085,30.683 338.700 C 30.541 338.315,30.194 338.003,29.913 338.006 C 29.571 338.010,29.543 338.110,29.829 338.306 M369.200 338.906 C 369.200 339.257,368.795 339.622,368.300 339.718 L 367.400 339.891 368.313 339.946 C 369.192 339.998,369.962 339.029,369.449 338.516 C 369.312 338.379,369.200 338.554,369.200 338.906 M33.632 340.492 C 33.597 341.247,35.056 341.795,36.268 341.482 C 36.757 341.356,36.634 341.277,35.900 341.246 C 35.295 341.221,34.800 341.009,34.800 340.776 C 34.800 340.543,34.635 340.455,34.434 340.579 C 34.233 340.703,33.977 340.579,33.866 340.302 C 33.742 339.996,33.651 340.071,33.632 340.492 M366.032 340.324 C 366.014 340.614,365.795 340.720,365.538 340.562 C 365.265 340.393,365.184 340.451,365.341 340.704 C 365.486 340.939,365.379 341.223,365.102 341.334 C 364.826 341.446,364.780 341.548,365.000 341.562 C 365.746 341.610,366.499 340.895,366.280 340.346 C 366.111 339.920,366.056 339.915,366.032 340.324 " stroke="none" fill="#6cbcfc" fill-rule="evenodd"></path><path id="path2" d="M49.800 80.379 C 48.369 80.965,46.127 83.402,45.629 84.913 C 45.361 85.725,44.975 86.492,44.771 86.618 C 43.071 87.669,46.148 93.686,49.323 95.520 C 51.938 97.031,58.719 96.048,58.784 94.149 C 58.793 93.901,59.161 93.451,59.603 93.149 C 60.758 92.359,61.388 88.569,60.811 85.868 C 59.873 81.468,54.129 78.604,49.800 80.379 M81.200 80.600 C 80.650 80.923,79.891 81.300,79.513 81.437 C 79.136 81.574,78.724 82.010,78.598 82.406 C 78.472 82.802,78.122 83.221,77.818 83.338 C 76.128 83.986,76.273 91.970,77.997 93.149 C 78.439 93.451,78.807 93.901,78.816 94.149 C 78.845 95.005,82.502 96.414,84.677 96.407 C 87.481 96.398,91.600 93.933,91.600 92.264 C 91.600 91.992,91.960 91.063,92.400 90.200 C 95.207 84.694,86.676 77.381,81.200 80.600 M111.792 81.069 C 108.248 83.500,106.565 90.222,108.912 92.569 C 109.293 92.950,109.790 93.608,110.017 94.031 C 110.243 94.454,110.668 94.800,110.960 94.800 C 111.253 94.800,111.950 95.160,112.509 95.600 C 116.632 98.843,124.400 93.962,124.400 88.128 C 124.400 82.079,116.647 77.739,111.792 81.069 M229.400 167.462 C 228.467 167.709,225.200 170.767,225.200 171.392 C 225.200 171.627,224.615 172.714,223.900 173.809 C 223.185 174.904,222.375 176.250,222.099 176.800 C 221.367 178.260,219.232 182.042,218.486 183.200 C 218.131 183.750,217.317 185.190,216.675 186.400 C 216.034 187.610,215.281 188.870,215.002 189.200 C 214.723 189.530,214.371 190.205,214.220 190.700 C 214.070 191.195,213.792 191.600,213.604 191.600 C 213.416 191.600,213.054 192.230,212.800 193.000 C 212.546 193.770,212.211 194.400,212.057 194.400 C 211.902 194.400,211.553 194.895,211.280 195.500 C 211.008 196.105,210.346 197.320,209.809 198.200 C 209.272 199.080,208.554 200.340,208.213 201.000 C 207.873 201.660,207.158 202.920,206.625 203.800 C 206.091 204.680,205.366 205.940,205.012 206.600 C 203.893 208.688,202.806 210.561,201.995 211.800 C 201.563 212.460,200.892 213.630,200.505 214.400 C 200.117 215.170,199.693 215.890,199.562 216.000 C 199.339 216.187,199.039 216.712,197.387 219.800 C 197.034 220.460,196.311 221.720,195.781 222.600 C 195.251 223.480,194.510 224.785,194.134 225.500 C 193.759 226.215,193.305 226.800,193.126 226.800 C 192.947 226.800,192.800 226.981,192.800 227.203 C 192.800 227.551,190.794 231.160,187.727 236.329 C 187.248 237.138,186.568 238.340,186.217 239.000 C 185.307 240.711,184.496 242.106,184.007 242.800 C 183.378 243.692,182.109 246.049,181.584 247.300 C 181.330 247.905,180.977 248.400,180.800 248.400 C 180.623 248.400,180.274 248.895,180.023 249.500 C 179.773 250.105,179.129 251.320,178.592 252.200 C 178.055 253.080,177.397 254.250,177.131 254.800 C 176.864 255.350,176.427 256.070,176.161 256.400 C 175.894 256.730,175.106 258.080,174.410 259.400 C 172.297 263.404,171.821 264.187,171.300 264.520 C 171.025 264.696,170.800 265.193,170.800 265.624 C 170.800 266.055,170.440 266.716,170.000 267.093 C 169.560 267.470,169.200 268.004,169.200 268.281 C 169.200 268.558,168.564 269.778,167.787 270.993 C 167.010 272.208,166.257 273.517,166.114 273.901 C 165.873 274.549,165.549 275.072,163.494 278.127 C 162.515 279.582,162.158 283.054,162.790 284.969 C 164.583 290.402,173.192 289.788,174.972 284.100 C 175.127 283.605,175.404 283.200,175.588 283.200 C 175.771 283.200,176.121 282.705,176.366 282.100 C 176.610 281.495,177.245 280.280,177.777 279.400 C 178.310 278.520,179.037 277.260,179.394 276.600 C 180.421 274.700,181.348 273.128,182.489 271.349 C 183.072 270.440,183.821 269.045,184.154 268.249 C 184.487 267.452,184.909 266.800,185.092 266.800 C 185.275 266.800,185.635 266.305,185.892 265.700 C 186.438 264.416,189.042 259.680,189.554 259.039 C 189.747 258.798,190.432 257.610,191.077 256.400 C 191.721 255.190,192.770 253.390,193.409 252.400 C 194.608 250.541,195.467 249.073,196.568 247.000 C 196.919 246.340,197.648 245.080,198.189 244.200 C 198.729 243.320,199.455 242.060,199.802 241.400 C 200.149 240.740,200.863 239.480,201.389 238.600 C 201.915 237.720,202.627 236.460,202.972 235.800 C 203.316 235.140,203.959 234.060,204.400 233.400 C 204.841 232.740,205.484 231.660,205.828 231.000 C 206.173 230.340,206.891 229.080,207.425 228.200 C 207.958 227.320,208.678 226.060,209.025 225.400 C 209.371 224.740,210.091 223.480,210.625 222.600 C 211.158 221.720,211.873 220.460,212.213 219.800 C 212.554 219.140,213.230 217.930,213.716 217.111 C 214.202 216.292,215.644 213.862,216.920 211.711 C 218.196 209.560,219.403 207.530,219.602 207.200 C 219.801 206.870,220.820 205.070,221.866 203.200 C 222.912 201.330,224.000 199.562,224.284 199.271 C 224.568 198.981,224.800 198.405,224.800 197.991 C 224.800 197.578,225.036 197.096,225.323 196.920 C 225.611 196.744,226.083 196.015,226.372 195.300 C 226.661 194.585,227.038 194.000,227.209 194.000 C 227.381 194.000,227.721 193.505,227.966 192.900 C 228.210 192.295,228.845 191.080,229.377 190.200 C 229.910 189.320,230.634 188.060,230.988 187.400 C 231.879 185.738,233.051 183.692,234.194 181.800 C 234.726 180.920,235.393 179.750,235.676 179.200 C 235.959 178.650,236.435 178.009,236.735 177.776 C 237.489 177.190,237.821 172.462,237.228 170.758 C 236.347 168.227,232.547 166.627,229.400 167.462 M130.906 173.352 C 129.974 173.842,128.561 174.818,127.767 175.521 C 126.973 176.225,126.226 176.800,126.107 176.800 C 125.989 176.800,125.506 177.205,125.034 177.700 C 123.882 178.910,119.252 182.914,118.506 183.345 C 118.178 183.535,117.232 184.345,116.404 185.145 C 114.445 187.039,110.533 190.434,109.450 191.181 C 108.983 191.503,108.389 191.955,108.132 192.184 C 105.726 194.321,102.613 197.038,100.800 198.583 C 99.590 199.613,98.215 200.804,97.744 201.228 C 97.273 201.653,96.786 202.000,96.662 202.000 C 96.538 202.000,96.009 202.405,95.486 202.900 C 92.509 205.719,90.119 207.849,89.538 208.200 C 88.761 208.669,86.221 210.816,84.097 212.797 C 83.274 213.566,81.070 215.441,79.200 216.965 C 77.330 218.488,75.656 219.974,75.480 220.267 C 75.304 220.560,74.911 220.800,74.607 220.800 C 74.303 220.800,73.945 221.143,73.812 221.563 C 73.679 221.983,73.306 222.427,72.985 222.550 C 72.663 222.674,72.399 223.006,72.398 223.287 C 72.396 223.569,72.107 224.340,71.754 225.000 C 69.792 228.674,71.304 232.362,76.600 236.818 C 78.360 238.299,80.430 240.065,81.200 240.743 C 81.970 241.421,82.862 242.206,83.181 242.488 C 83.501 242.769,84.854 243.900,86.187 245.000 C 88.427 246.848,90.823 248.937,92.381 250.400 C 92.733 250.730,94.531 252.245,96.377 253.767 C 98.223 255.288,100.032 256.818,100.396 257.167 C 101.303 258.032,104.860 261.064,108.009 263.654 C 110.790 265.941,112.832 267.701,114.210 269.000 C 114.677 269.440,116.486 270.963,118.230 272.384 C 119.973 273.805,121.767 275.335,122.215 275.784 C 122.663 276.233,123.796 277.230,124.732 278.000 C 125.668 278.770,127.012 279.914,127.717 280.542 C 131.962 284.323,136.405 284.074,139.052 279.908 C 141.287 276.390,140.020 273.785,133.448 268.389 C 131.714 266.965,129.613 265.125,128.779 264.300 C 127.945 263.475,127.078 262.800,126.851 262.800 C 126.625 262.800,126.296 262.575,126.120 262.300 C 125.944 262.025,124.720 260.909,123.400 259.820 C 120.497 257.426,120.253 257.212,118.100 255.194 C 117.164 254.317,116.228 253.600,116.019 253.600 C 115.811 253.600,115.496 253.350,115.320 253.045 C 115.144 252.740,113.920 251.627,112.600 250.572 C 111.280 249.517,109.380 247.922,108.378 247.027 C 105.959 244.866,104.270 243.425,100.310 240.141 C 98.492 238.633,96.413 236.815,95.689 236.100 C 94.965 235.385,94.239 234.800,94.076 234.800 C 93.912 234.800,93.474 234.485,93.103 234.100 C 92.250 233.216,91.475 232.536,89.100 230.588 C 86.769 228.677,86.600 227.466,88.458 225.996 C 89.149 225.448,90.010 224.724,90.371 224.387 C 90.731 224.050,92.176 222.817,93.580 221.648 C 94.985 220.479,96.355 219.315,96.625 219.061 C 96.895 218.808,97.975 217.880,99.025 217.000 C 100.074 216.120,101.779 214.680,102.812 213.800 C 103.846 212.920,105.545 211.480,106.588 210.600 C 107.630 209.720,108.886 208.640,109.378 208.200 C 111.860 205.982,113.146 204.896,114.653 203.742 C 115.563 203.046,116.952 201.874,117.742 201.138 C 119.555 199.448,120.000 199.063,123.089 196.521 C 124.479 195.377,125.866 194.207,126.172 193.921 C 126.478 193.634,127.503 192.770,128.449 192.000 C 129.396 191.230,130.537 190.235,130.985 189.790 C 131.433 189.344,132.790 188.184,134.000 187.211 C 139.927 182.450,141.284 179.289,138.887 175.834 C 136.706 172.690,133.851 171.803,130.906 173.352 M263.810 173.509 C 262.715 174.109,261.611 175.020,261.356 175.534 C 261.101 176.047,260.692 176.668,260.446 176.914 C 258.836 178.524,260.638 182.508,264.387 185.624 C 265.810 186.806,267.263 188.050,267.617 188.387 C 268.311 189.049,271.398 191.693,274.600 194.369 C 276.518 195.971,280.296 199.262,281.399 200.291 C 281.688 200.561,283.474 202.049,285.368 203.597 C 287.261 205.144,289.137 206.723,289.535 207.105 C 290.416 207.951,293.700 210.753,297.187 213.635 C 298.610 214.812,300.064 216.050,300.418 216.387 C 301.231 217.159,304.782 220.218,307.400 222.401 C 314.426 228.257,314.397 227.895,308.247 232.888 C 307.781 233.266,307.130 233.815,306.800 234.107 C 306.470 234.399,304.861 235.800,303.225 237.219 C 301.589 238.639,299.961 240.070,299.607 240.400 C 299.254 240.730,298.466 241.360,297.856 241.800 C 297.246 242.240,295.954 243.320,294.987 244.200 C 291.661 247.224,288.997 249.504,287.111 250.940 C 286.072 251.731,284.889 252.698,284.482 253.089 C 283.276 254.247,281.182 256.064,278.501 258.279 C 277.117 259.423,275.734 260.593,275.428 260.879 C 275.122 261.166,274.106 262.030,273.170 262.800 C 272.234 263.570,271.183 264.492,270.834 264.849 C 270.485 265.206,269.030 266.456,267.600 267.627 C 266.170 268.798,264.856 269.991,264.680 270.278 C 264.504 270.565,264.165 270.800,263.926 270.800 C 261.717 270.800,258.937 277.820,260.600 279.200 C 260.930 279.474,261.200 279.915,261.200 280.179 C 261.200 280.951,262.956 282.385,264.436 282.822 C 267.937 283.857,270.795 282.374,277.581 276.000 C 277.932 275.670,279.745 274.149,281.610 272.620 C 283.474 271.091,285.294 269.561,285.654 269.220 C 286.013 268.879,287.168 267.880,288.220 267.000 C 292.238 263.639,294.273 261.905,296.400 260.032 C 298.875 257.852,300.940 256.096,302.357 254.964 C 302.884 254.544,303.599 253.885,303.946 253.500 C 304.294 253.115,304.703 252.800,304.856 252.800 C 305.009 252.800,305.859 252.125,306.744 251.300 C 308.919 249.273,312.280 246.378,313.594 245.400 C 314.185 244.960,314.948 244.330,315.291 244.000 C 315.633 243.670,316.679 242.770,317.615 242.000 C 318.552 241.230,319.696 240.240,320.158 239.800 C 320.621 239.360,322.080 238.104,323.400 237.010 C 327.096 233.945,329.200 230.698,329.200 228.058 C 329.200 225.759,326.454 220.800,325.182 220.800 C 324.972 220.800,324.800 220.660,324.800 220.489 C 324.800 220.318,323.620 219.193,322.177 217.989 C 320.734 216.785,318.762 215.080,317.794 214.200 C 316.826 213.320,315.456 212.150,314.748 211.600 C 314.041 211.050,312.967 210.105,312.362 209.500 C 311.757 208.895,311.130 208.400,310.969 208.400 C 310.809 208.400,309.748 207.545,308.612 206.500 C 306.149 204.234,304.889 203.148,300.403 199.421 C 298.535 197.870,296.722 196.330,296.374 196.000 C 295.669 195.332,292.262 192.407,289.786 190.344 C 288.899 189.605,287.909 188.778,287.586 188.506 C 284.311 185.744,283.320 184.873,282.576 184.100 C 282.099 183.605,281.504 183.200,281.254 183.200 C 281.004 183.200,280.799 183.065,280.799 182.900 C 280.798 182.735,279.674 181.700,278.302 180.600 C 276.930 179.500,275.445 178.232,275.003 177.783 C 270.301 173.000,267.023 171.749,263.810 173.509 " stroke="none" fill="#fafbfc" fill-rule="evenodd"></path><path id="path3" d="M49.600 80.047 C 47.615 80.835,44.400 84.767,44.400 86.408 C 44.400 87.274,45.151 86.361,45.629 84.913 C 47.960 77.850,59.253 78.560,60.811 85.868 C 61.388 88.569,60.758 92.359,59.603 93.149 C 59.161 93.451,58.793 93.901,58.784 94.149 C 58.755 95.005,55.098 96.414,52.923 96.407 C 48.676 96.393,45.768 93.511,44.241 87.800 C 44.123 87.360,44.112 87.763,44.217 88.695 C 45.289 98.221,57.831 99.967,61.216 91.062 C 62.494 87.700,61.745 84.736,58.872 81.784 C 56.799 79.654,52.583 78.864,49.600 80.047 M81.340 79.877 C 80.867 79.970,79.695 80.800,78.737 81.723 C 70.157 89.982,81.956 102.334,90.721 94.269 C 91.576 93.482,93.200 90.375,93.200 89.526 C 93.200 88.638,92.381 89.772,91.927 91.287 C 90.606 95.695,85.276 97.701,80.716 95.507 C 79.679 95.008,78.824 94.397,78.816 94.149 C 78.807 93.901,78.439 93.451,77.997 93.149 C 76.273 91.970,76.128 83.986,77.818 83.338 C 78.122 83.221,78.472 82.802,78.598 82.406 C 78.724 82.010,79.136 81.574,79.513 81.437 C 79.891 81.300,80.650 80.923,81.200 80.600 C 84.628 78.585,90.513 80.881,91.976 84.805 C 92.262 85.572,92.751 86.830,93.063 87.600 L 93.630 89.000 93.382 87.419 C 92.472 81.626,87.696 78.635,81.340 79.877 M112.579 79.959 C 111.475 80.439,108.192 83.526,108.480 83.814 C 108.606 83.939,109.044 83.628,109.454 83.121 C 113.418 78.225,120.588 79.111,123.588 84.868 C 125.422 88.385,123.703 93.485,120.048 95.375 C 119.321 95.751,118.829 96.162,118.955 96.288 C 120.328 97.661,124.782 91.576,124.792 88.312 C 124.812 82.352,117.920 77.639,112.579 79.959 M107.786 85.666 C 107.437 87.255,107.484 89.461,107.899 90.926 C 108.114 91.685,108.218 90.804,108.218 88.226 C 108.218 84.003,108.189 83.830,107.786 85.666 M108.400 92.597 C 108.400 94.394,113.028 96.869,116.069 96.697 L 118.600 96.554 116.063 96.477 C 114.217 96.421,113.249 96.182,112.509 95.600 C 111.950 95.160,111.257 94.800,110.969 94.800 C 110.681 94.800,110.126 94.260,109.736 93.600 C 109.117 92.552,108.400 92.013,108.400 92.597 M230.119 166.853 C 227.667 167.289,227.060 167.726,225.352 170.290 C 223.694 172.776,223.315 173.424,221.260 177.283 C 220.523 178.668,219.734 180.027,219.507 180.305 C 219.093 180.810,218.197 182.353,217.009 184.600 C 216.660 185.260,216.020 186.340,215.586 187.000 C 215.153 187.660,214.516 188.740,214.172 189.400 C 213.827 190.060,213.152 191.263,212.673 192.074 C 212.193 192.885,209.313 197.835,206.273 203.074 C 203.233 208.313,200.584 212.870,200.387 213.200 C 200.189 213.530,199.437 214.847,198.714 216.126 C 197.991 217.405,197.219 218.755,196.998 219.126 C 196.778 219.497,195.788 221.206,194.798 222.924 C 193.809 224.642,192.602 226.712,192.116 227.524 C 191.630 228.336,190.954 229.540,190.613 230.200 C 190.273 230.860,189.558 232.120,189.025 233.000 C 188.491 233.880,187.773 235.140,187.428 235.800 C 187.084 236.460,186.441 237.540,186.000 238.200 C 185.559 238.860,184.916 239.940,184.572 240.600 C 184.227 241.260,183.552 242.462,183.073 243.271 C 182.593 244.080,181.249 246.420,180.087 248.471 C 178.925 250.522,177.808 252.470,177.606 252.800 C 176.542 254.533,167.601 270.017,166.397 272.210 C 165.626 273.615,164.771 274.989,164.497 275.263 C 164.224 275.536,164.000 275.972,164.000 276.231 C 164.000 276.490,163.749 276.911,163.441 277.166 C 162.782 277.713,161.600 281.139,161.600 282.504 C 161.600 289.937,171.746 291.881,175.241 285.118 C 175.548 284.523,177.600 280.951,179.800 277.180 C 182.000 273.410,184.430 269.185,185.200 267.792 C 185.970 266.400,186.751 265.111,186.935 264.930 C 187.120 264.748,187.526 264.060,187.838 263.400 C 188.150 262.740,188.809 261.529,189.303 260.709 C 189.796 259.890,190.719 258.270,191.353 257.109 C 191.988 255.949,192.843 254.571,193.253 254.046 C 193.664 253.521,194.000 252.906,194.000 252.678 C 194.000 252.450,194.250 251.979,194.555 251.631 C 194.861 251.284,195.611 250.010,196.224 248.800 C 196.836 247.590,197.531 246.352,197.768 246.048 C 198.006 245.744,198.740 244.540,199.400 243.372 C 202.730 237.478,204.865 233.740,205.209 233.200 C 205.628 232.543,207.055 230.106,208.000 228.433 C 208.799 227.019,214.745 216.763,215.208 216.000 C 215.408 215.670,216.163 214.349,216.886 213.064 C 217.609 211.780,218.590 210.070,219.067 209.264 C 219.543 208.459,220.413 206.900,220.998 205.800 C 221.584 204.700,222.306 203.530,222.604 203.199 C 222.901 202.869,223.346 202.149,223.593 201.599 C 223.839 201.050,224.437 199.938,224.921 199.129 C 225.404 198.320,226.751 195.980,227.913 193.929 C 229.075 191.878,230.194 189.930,230.400 189.600 C 230.605 189.270,232.067 186.750,233.649 184.000 C 235.231 181.250,236.729 178.730,236.979 178.400 C 238.294 176.664,238.962 173.229,238.269 171.775 C 237.901 171.004,237.600 170.154,237.600 169.886 C 237.600 168.186,233.034 166.335,230.119 166.853 M235.625 168.509 C 237.615 170.078,238.384 176.494,236.735 177.776 C 236.435 178.009,235.959 178.650,235.676 179.200 C 235.393 179.750,234.726 180.920,234.194 181.800 C 233.051 183.692,231.879 185.738,230.988 187.400 C 230.634 188.060,229.910 189.320,229.377 190.200 C 228.845 191.080,228.210 192.295,227.966 192.900 C 227.721 193.505,227.381 194.000,227.209 194.000 C 227.038 194.000,226.661 194.585,226.372 195.300 C 226.083 196.015,225.611 196.744,225.323 196.920 C 225.036 197.096,224.800 197.578,224.800 197.991 C 224.800 198.405,224.568 198.981,224.284 199.271 C 224.000 199.562,222.912 201.330,221.866 203.200 C 220.820 205.070,219.801 206.870,219.602 207.200 C 219.403 207.530,218.196 209.560,216.920 211.711 C 215.644 213.862,214.202 216.292,213.716 217.111 C 213.230 217.930,212.554 219.140,212.213 219.800 C 211.873 220.460,211.158 221.720,210.625 222.600 C 210.091 223.480,209.371 224.740,209.025 225.400 C 208.678 226.060,207.958 227.320,207.425 228.200 C 206.891 229.080,206.173 230.340,205.828 231.000 C 205.484 231.660,204.841 232.740,204.400 233.400 C 203.959 234.060,203.316 235.140,202.972 235.800 C 202.627 236.460,201.915 237.720,201.389 238.600 C 200.863 239.480,200.149 240.740,199.802 241.400 C 199.455 242.060,198.729 243.320,198.189 244.200 C 197.648 245.080,196.919 246.340,196.568 247.000 C 195.467 249.073,194.608 250.541,193.409 252.400 C 192.770 253.390,191.721 255.190,191.077 256.400 C 190.432 257.610,189.747 258.798,189.554 259.039 C 189.042 259.680,186.438 264.416,185.892 265.700 C 185.635 266.305,185.275 266.800,185.092 266.800 C 184.909 266.800,184.487 267.452,184.154 268.249 C 183.821 269.045,183.072 270.440,182.489 271.349 C 181.348 273.128,180.421 274.700,179.394 276.600 C 179.037 277.260,178.310 278.520,177.777 279.400 C 177.245 280.280,176.610 281.495,176.366 282.100 C 176.121 282.705,175.771 283.200,175.588 283.200 C 175.404 283.200,175.127 283.605,174.972 284.100 C 173.192 289.788,164.583 290.402,162.790 284.969 C 162.158 283.054,162.515 279.582,163.494 278.127 C 165.549 275.072,165.873 274.549,166.114 273.901 C 166.257 273.517,167.010 272.208,167.787 270.993 C 168.564 269.778,169.200 268.558,169.200 268.281 C 169.200 268.004,169.560 267.470,170.000 267.093 C 170.440 266.716,170.800 266.055,170.800 265.624 C 170.800 265.193,171.025 264.696,171.300 264.520 C 171.821 264.187,172.297 263.404,174.410 259.400 C 175.106 258.080,175.894 256.730,176.161 256.400 C 176.427 256.070,176.864 255.350,177.131 254.800 C 177.397 254.250,178.055 253.080,178.592 252.200 C 179.129 251.320,179.773 250.105,180.023 249.500 C 180.274 248.895,180.623 248.400,180.800 248.400 C 180.977 248.400,181.330 247.905,181.584 247.300 C 182.109 246.049,183.378 243.692,184.007 242.800 C 184.496 242.106,185.307 240.711,186.217 239.000 C 186.568 238.340,187.248 237.138,187.727 236.329 C 190.794 231.160,192.800 227.551,192.800 227.203 C 192.800 226.981,192.947 226.800,193.126 226.800 C 193.305 226.800,193.759 226.215,194.134 225.500 C 194.510 224.785,195.251 223.480,195.781 222.600 C 196.311 221.720,197.034 220.460,197.387 219.800 C 199.039 216.712,199.339 216.187,199.562 216.000 C 199.693 215.890,200.117 215.170,200.505 214.400 C 200.892 213.630,201.563 212.460,201.995 211.800 C 202.806 210.561,203.893 208.688,205.012 206.600 C 205.366 205.940,206.091 204.680,206.625 203.800 C 207.158 202.920,207.873 201.660,208.213 201.000 C 208.554 200.340,209.272 199.080,209.809 198.200 C 210.346 197.320,211.008 196.105,211.280 195.500 C 211.553 194.895,211.902 194.400,212.057 194.400 C 212.211 194.400,212.546 193.770,212.800 193.000 C 213.054 192.230,213.416 191.600,213.604 191.600 C 213.792 191.600,214.070 191.195,214.220 190.700 C 214.371 190.205,214.723 189.530,215.002 189.200 C 215.281 188.870,216.034 187.610,216.675 186.400 C 217.317 185.190,218.131 183.750,218.486 183.200 C 219.232 182.042,221.367 178.260,222.099 176.800 C 222.375 176.250,223.185 174.904,223.900 173.809 C 224.615 172.714,225.200 171.627,225.200 171.392 C 225.200 168.247,232.672 166.180,235.625 168.509 M129.346 173.576 C 128.056 174.443,126.370 175.753,125.600 176.489 C 124.830 177.224,122.678 179.080,120.817 180.613 C 118.956 182.146,116.976 183.830,116.417 184.356 C 115.858 184.882,113.420 186.979,111.000 189.015 C 108.580 191.051,104.980 194.105,103.000 195.801 C 101.020 197.498,97.885 200.172,96.033 201.743 C 94.182 203.314,92.378 204.870,92.024 205.200 C 91.671 205.530,90.306 206.696,88.991 207.792 C 87.676 208.887,85.250 210.965,83.600 212.408 C 81.950 213.851,79.160 216.222,77.400 217.677 C 67.548 225.821,67.796 230.304,78.600 239.398 C 81.020 241.434,83.569 243.618,84.265 244.250 C 84.961 244.883,86.743 246.390,88.227 247.600 C 89.710 248.810,91.408 250.250,92.001 250.800 C 92.593 251.350,95.120 253.510,97.616 255.600 C 100.112 257.690,102.443 259.670,102.796 260.000 C 103.148 260.330,104.508 261.496,105.818 262.591 C 107.128 263.686,108.301 264.722,108.425 264.893 C 108.548 265.064,109.195 265.608,109.862 266.102 C 110.528 266.596,112.227 268.019,113.637 269.265 C 115.047 270.511,117.730 272.823,119.600 274.402 C 121.470 275.981,123.540 277.755,124.200 278.344 C 131.631 284.973,135.109 285.638,138.942 281.159 C 141.883 277.724,141.109 274.108,136.610 270.264 C 135.284 269.132,134.110 268.104,134.000 267.981 C 133.890 267.858,132.682 266.835,131.315 265.708 C 128.551 263.429,128.385 263.288,126.400 261.546 C 125.630 260.870,123.380 258.950,121.400 257.280 C 119.420 255.610,117.070 253.604,116.178 252.822 C 113.875 250.802,111.419 248.700,110.543 248.000 C 109.052 246.807,105.037 243.382,104.214 242.600 C 102.668 241.131,98.700 237.805,98.046 237.429 C 97.691 237.225,97.220 236.847,97.000 236.589 C 96.631 236.157,92.364 232.466,89.297 229.926 C 87.116 228.120,87.306 227.765,93.000 223.003 C 95.860 220.610,98.290 218.529,98.400 218.376 C 98.510 218.224,99.778 217.132,101.219 215.950 C 102.659 214.767,104.099 213.569,104.419 213.288 C 107.176 210.857,108.275 209.914,111.600 207.120 C 115.836 203.561,119.398 200.508,120.374 199.600 C 120.729 199.270,122.541 197.740,124.400 196.200 C 126.259 194.660,128.070 193.130,128.425 192.800 C 129.726 191.588,133.864 188.044,136.118 186.211 C 140.602 182.565,141.793 178.798,139.516 175.454 C 136.942 171.672,133.206 170.982,129.346 173.576 M262.916 173.162 C 260.605 174.836,259.600 176.662,259.600 179.185 C 259.600 182.060,260.530 183.383,265.389 187.417 C 268.706 190.170,278.871 198.843,281.958 201.554 C 283.365 202.789,284.997 204.160,285.584 204.600 C 286.170 205.040,288.349 206.870,290.425 208.667 C 292.501 210.464,295.730 213.227,297.600 214.808 C 299.470 216.388,301.990 218.542,303.200 219.594 C 307.066 222.955,309.423 224.968,310.931 226.198 C 312.853 227.765,312.785 228.393,310.500 230.172 C 309.455 230.986,307.250 232.873,305.600 234.366 C 303.950 235.859,301.520 237.953,300.200 239.018 C 298.880 240.084,295.909 242.586,293.598 244.578 C 291.287 246.570,288.321 249.100,287.007 250.200 C 285.693 251.300,284.328 252.470,283.974 252.800 C 282.594 254.088,278.376 257.702,277.316 258.505 C 276.702 258.971,275.382 260.082,274.382 260.976 C 271.672 263.397,270.161 264.692,266.195 267.989 C 261.783 271.658,261.707 271.731,260.542 273.447 C 258.416 276.580,259.946 281.473,263.618 283.281 C 266.872 284.884,269.335 283.913,275.632 278.547 C 278.180 276.376,281.763 273.340,283.593 271.800 C 285.424 270.260,287.209 268.709,287.561 268.353 C 287.912 267.997,289.280 266.843,290.600 265.789 C 291.920 264.735,293.270 263.623,293.600 263.319 C 294.742 262.265,297.016 260.303,300.600 257.280 C 303.947 254.458,306.016 252.672,309.000 250.030 C 310.439 248.756,316.655 243.533,318.952 241.669 C 319.853 240.937,320.683 240.207,320.796 240.048 C 320.908 239.888,322.120 238.834,323.489 237.705 C 332.864 229.975,331.969 224.956,319.404 214.787 C 317.646 213.364,315.928 211.930,315.585 211.600 C 314.785 210.829,310.721 207.323,308.400 205.401 C 305.678 203.148,302.446 200.387,300.418 198.582 C 299.418 197.692,297.615 196.162,296.411 195.182 C 295.208 194.202,293.935 193.130,293.582 192.800 C 292.199 191.504,290.129 189.750,288.797 188.748 C 288.029 188.169,286.936 187.269,286.369 186.748 C 284.203 184.756,280.392 181.489,277.948 179.527 C 276.549 178.404,275.224 177.274,275.002 177.016 C 271.138 172.505,266.059 170.885,262.916 173.162 M136.200 173.351 C 141.927 176.631,141.161 181.458,134.000 187.211 C 132.790 188.184,131.433 189.344,130.985 189.790 C 130.537 190.235,129.396 191.230,128.449 192.000 C 127.503 192.770,126.478 193.634,126.172 193.921 C 125.866 194.207,124.479 195.377,123.089 196.521 C 120.000 199.063,119.555 199.448,117.742 201.138 C 116.952 201.874,115.563 203.046,114.653 203.742 C 113.146 204.896,111.860 205.982,109.378 208.200 C 108.886 208.640,107.630 209.720,106.588 210.600 C 105.545 211.480,103.846 212.920,102.812 213.800 C 101.779 214.680,100.074 216.120,99.025 217.000 C 97.975 217.880,96.895 218.808,96.625 219.061 C 96.355 219.315,94.985 220.479,93.580 221.648 C 92.176 222.817,90.731 224.050,90.371 224.387 C 90.010 224.724,89.149 225.448,88.458 225.996 C 86.600 227.466,86.769 228.677,89.100 230.588 C 91.475 232.536,92.250 233.216,93.103 234.100 C 93.474 234.485,93.912 234.800,94.076 234.800 C 94.239 234.800,94.965 235.385,95.689 236.100 C 96.413 236.815,98.492 238.633,100.310 240.141 C 104.270 243.425,105.959 244.866,108.378 247.027 C 109.380 247.922,111.280 249.517,112.600 250.572 C 113.920 251.627,115.144 252.740,115.320 253.045 C 115.496 253.350,115.811 253.600,116.019 253.600 C 116.228 253.600,117.164 254.317,118.100 255.194 C 120.253 257.212,120.497 257.426,123.400 259.820 C 124.720 260.909,125.944 262.025,126.120 262.300 C 126.296 262.575,126.625 262.800,126.851 262.800 C 127.078 262.800,127.945 263.475,128.779 264.300 C 129.613 265.125,131.714 266.965,133.448 268.389 C 140.020 273.785,141.287 276.390,139.052 279.908 C 137.361 282.570,136.660 282.965,133.633 282.965 C 130.778 282.965,130.147 282.706,127.717 280.542 C 127.012 279.914,125.668 278.770,124.732 278.000 C 123.796 277.230,122.663 276.233,122.215 275.784 C 121.767 275.335,119.973 273.805,118.230 272.384 C 116.486 270.963,114.677 269.440,114.210 269.000 C 112.832 267.701,110.790 265.941,108.009 263.654 C 104.860 261.064,101.303 258.032,100.396 257.167 C 100.032 256.818,98.223 255.288,96.377 253.767 C 94.531 252.245,92.733 250.730,92.381 250.400 C 90.823 248.937,88.427 246.848,86.187 245.000 C 84.854 243.900,83.501 242.769,83.181 242.488 C 82.862 242.206,81.970 241.421,81.200 240.743 C 80.430 240.065,78.360 238.299,76.600 236.818 C 71.304 232.362,69.792 228.674,71.754 225.000 C 72.107 224.340,72.396 223.569,72.398 223.287 C 72.399 223.006,72.663 222.674,72.985 222.550 C 73.306 222.427,73.679 221.983,73.812 221.563 C 73.945 221.143,74.303 220.800,74.607 220.800 C 74.911 220.800,75.304 220.560,75.480 220.267 C 75.656 219.974,77.330 218.488,79.200 216.965 C 81.070 215.441,83.274 213.566,84.097 212.797 C 86.221 210.816,88.761 208.669,89.538 208.200 C 90.119 207.849,92.509 205.719,95.486 202.900 C 96.009 202.405,96.538 202.000,96.662 202.000 C 96.786 202.000,97.273 201.653,97.744 201.228 C 98.215 200.804,99.590 199.613,100.800 198.583 C 102.613 197.038,105.726 194.321,108.132 192.184 C 108.389 191.955,108.983 191.503,109.450 191.181 C 110.533 190.434,114.445 187.039,116.404 185.145 C 117.232 184.345,118.178 183.535,118.506 183.345 C 119.252 182.914,123.882 178.910,125.034 177.700 C 125.506 177.205,125.989 176.800,126.107 176.800 C 126.226 176.800,126.973 176.225,127.767 175.521 C 131.171 172.508,133.625 171.876,136.200 173.351 M268.916 173.248 C 270.607 174.100,273.505 176.258,275.003 177.783 C 275.445 178.232,276.930 179.500,278.302 180.600 C 279.674 181.700,280.798 182.735,280.799 182.900 C 280.799 183.065,281.004 183.200,281.254 183.200 C 281.504 183.200,282.099 183.605,282.576 184.100 C 283.320 184.873,284.311 185.744,287.586 188.506 C 287.909 188.778,288.899 189.605,289.786 190.344 C 292.262 192.407,295.669 195.332,296.374 196.000 C 296.722 196.330,298.535 197.870,300.403 199.421 C 304.889 203.148,306.149 204.234,308.612 206.500 C 309.748 207.545,310.809 208.400,310.969 208.400 C 311.130 208.400,311.757 208.895,312.362 209.500 C 312.967 210.105,314.041 211.050,314.748 211.600 C 315.456 212.150,316.826 213.320,317.794 214.200 C 318.762 215.080,320.734 216.785,322.177 217.989 C 323.620 219.193,324.800 220.318,324.800 220.489 C 324.800 220.660,324.972 220.800,325.182 220.800 C 326.454 220.800,329.200 225.759,329.200 228.058 C 329.200 230.698,327.096 233.945,323.400 237.010 C 322.080 238.104,320.621 239.360,320.158 239.800 C 319.696 240.240,318.552 241.230,317.615 242.000 C 316.679 242.770,315.633 243.670,315.291 244.000 C 314.948 244.330,314.185 244.960,313.594 245.400 C 312.280 246.378,308.919 249.273,306.744 251.300 C 305.859 252.125,305.009 252.800,304.856 252.800 C 304.703 252.800,304.294 253.115,303.946 253.500 C 303.599 253.885,302.884 254.544,302.357 254.964 C 300.940 256.096,298.875 257.852,296.400 260.032 C 294.273 261.905,292.238 263.639,288.220 267.000 C 287.168 267.880,286.013 268.879,285.654 269.220 C 285.294 269.561,283.474 271.091,281.610 272.620 C 279.745 274.149,277.932 275.670,277.581 276.000 C 270.795 282.374,267.937 283.857,264.436 282.822 C 262.956 282.385,261.200 280.951,261.200 280.179 C 261.200 279.915,260.930 279.474,260.600 279.200 C 258.937 277.820,261.717 270.800,263.926 270.800 C 264.165 270.800,264.504 270.565,264.680 270.278 C 264.856 269.991,266.170 268.798,267.600 267.627 C 269.030 266.456,270.485 265.206,270.834 264.849 C 271.183 264.492,272.234 263.570,273.170 262.800 C 274.106 262.030,275.122 261.166,275.428 260.879 C 275.734 260.593,277.117 259.423,278.501 258.279 C 281.182 256.064,283.276 254.247,284.482 253.089 C 284.889 252.698,286.072 251.731,287.111 250.940 C 288.997 249.504,291.661 247.224,294.987 244.200 C 295.954 243.320,297.246 242.240,297.856 241.800 C 298.466 241.360,299.254 240.730,299.607 240.400 C 299.961 240.070,301.589 238.639,303.225 237.219 C 304.861 235.800,306.470 234.399,306.800 234.107 C 307.130 233.815,307.781 233.266,308.247 232.888 C 314.397 227.895,314.426 228.257,307.400 222.401 C 304.782 220.218,301.231 217.159,300.418 216.387 C 300.064 216.050,298.610 214.812,297.187 213.635 C 293.700 210.753,290.416 207.951,289.535 207.105 C 289.137 206.723,287.261 205.144,285.368 203.597 C 283.474 202.049,281.688 200.561,281.399 200.291 C 280.296 199.262,276.518 195.971,274.600 194.369 C 271.398 191.693,268.311 189.049,267.617 188.387 C 267.263 188.050,265.810 186.806,264.387 185.624 C 260.638 182.508,258.836 178.524,260.446 176.914 C 260.692 176.668,261.101 176.047,261.356 175.534 C 262.542 173.144,266.396 171.979,268.916 173.248 " stroke="none" fill="#ceecfc" fill-rule="evenodd"></path><path id="path4" d="M48.800 80.089 C 46.742 81.183,44.011 84.809,44.047 86.400 L 44.069 87.400 44.374 86.397 C 46.422 79.663,54.353 77.140,58.872 81.784 C 63.410 86.447,62.548 92.983,57.006 95.947 C 56.129 96.416,55.710 96.800,56.075 96.800 C 58.403 96.800,62.327 91.515,62.377 88.311 C 62.479 81.758,54.616 76.996,48.800 80.089 M81.128 79.572 C 80.044 79.920,76.656 82.789,76.965 83.098 C 77.057 83.190,77.865 82.553,78.762 81.683 C 83.398 77.184,91.197 79.726,93.226 86.397 C 93.514 87.344,93.533 87.350,93.566 86.506 C 93.738 82.027,86.340 77.903,81.128 79.572 M116.500 79.608 C 120.046 79.946,122.568 81.548,123.868 84.286 C 124.246 85.083,124.622 85.533,124.705 85.286 C 125.503 82.892,119.851 79.148,115.603 79.256 C 113.555 79.308,113.618 79.333,116.500 79.608 M110.884 80.538 C 105.484 84.522,105.672 92.496,111.247 95.913 C 113.376 97.218,113.657 96.994,111.578 95.650 C 105.756 91.886,106.355 82.504,112.579 79.983 C 113.138 79.757,113.202 79.643,112.778 79.625 C 112.435 79.611,111.583 80.022,110.884 80.538 M75.850 85.191 C 74.180 89.365,77.815 96.800,81.525 96.800 C 81.890 96.800,81.471 96.416,80.594 95.947 C 76.657 93.842,74.759 89.317,76.250 85.591 C 76.608 84.698,76.810 83.877,76.700 83.767 C 76.590 83.657,76.208 84.298,75.850 85.191 M124.924 88.200 C 124.926 89.520,125.001 90.012,125.090 89.293 C 125.179 88.574,125.177 87.494,125.086 86.893 C 124.995 86.292,124.922 86.880,124.924 88.200 M93.254 89.249 C 93.058 91.596,91.056 94.362,88.400 95.957 C 87.630 96.419,87.215 96.798,87.477 96.799 C 88.345 96.801,90.722 95.177,91.457 94.080 C 92.970 91.821,93.639 90.289,93.477 89.459 C 93.377 88.950,93.287 88.864,93.254 89.249 M44.032 89.932 C 43.962 91.990,48.223 96.800,50.117 96.800 C 50.376 96.800,49.871 96.423,48.994 95.962 C 46.880 94.851,45.243 92.652,44.257 89.600 C 44.143 89.247,44.050 89.384,44.032 89.932 M123.508 92.599 C 121.937 95.199,119.733 96.492,116.264 96.848 L 113.400 97.141 116.484 97.032 C 119.368 96.929,119.684 96.827,121.352 95.461 C 123.018 94.096,125.091 91.358,124.731 90.998 C 124.643 90.910,124.093 91.630,123.508 92.599 M51.907 97.090 C 52.626 97.179,53.706 97.177,54.307 97.086 C 54.908 96.995,54.320 96.922,53.000 96.924 C 51.680 96.926,51.188 97.001,51.907 97.090 M83.507 97.090 C 84.226 97.179,85.306 97.177,85.907 97.086 C 86.508 96.995,85.920 96.922,84.600 96.924 C 83.280 96.926,82.788 97.001,83.507 97.090 M229.776 166.187 C 229.349 166.510,228.630 166.780,228.178 166.787 C 227.288 166.801,225.243 168.792,224.467 170.400 C 224.201 170.950,223.546 172.120,223.011 173.000 C 222.476 173.880,221.909 174.870,221.751 175.200 C 221.593 175.530,221.134 176.229,220.732 176.754 C 220.329 177.279,220.000 178.029,220.000 178.421 C 220.000 178.813,219.801 179.200,219.558 179.281 C 219.165 179.412,216.821 183.313,215.520 186.000 C 215.254 186.550,214.713 187.322,214.318 187.716 C 213.923 188.109,213.600 188.790,213.600 189.228 C 213.600 189.666,213.346 190.122,213.036 190.241 C 212.726 190.361,212.360 190.905,212.223 191.452 C 212.085 191.999,211.390 193.291,210.677 194.323 C 209.965 195.355,209.157 196.650,208.883 197.200 C 208.609 197.750,207.950 198.920,207.420 199.800 C 206.889 200.680,206.166 201.940,205.813 202.600 C 204.217 205.583,203.830 206.227,203.332 206.725 C 203.039 207.018,202.800 207.610,202.800 208.041 C 202.800 208.472,202.543 208.924,202.228 209.045 C 201.913 209.165,201.472 209.791,201.248 210.434 C 201.024 211.077,200.244 212.548,199.515 213.702 C 198.787 214.856,197.964 216.160,197.687 216.600 C 197.410 217.040,196.905 217.940,196.564 218.600 C 196.224 219.260,195.510 220.520,194.977 221.400 C 194.445 222.280,193.810 223.495,193.566 224.100 C 193.321 224.705,192.971 225.200,192.787 225.200 C 192.603 225.200,192.224 225.830,191.946 226.600 C 191.667 227.370,191.317 228.000,191.168 228.000 C 191.019 228.000,190.660 228.585,190.371 229.300 C 190.082 230.015,189.725 230.690,189.579 230.800 C 189.300 231.009,186.749 235.476,185.924 237.200 C 185.661 237.750,185.217 238.476,184.939 238.814 C 184.660 239.152,183.861 240.502,183.164 241.814 C 182.467 243.126,181.290 245.119,180.548 246.241 C 179.807 247.364,179.200 248.585,179.200 248.954 C 179.200 249.323,178.941 249.724,178.624 249.846 C 178.308 249.967,177.934 250.592,177.793 251.233 C 177.652 251.875,177.373 252.400,177.174 252.400 C 176.974 252.400,176.557 253.008,176.246 253.751 C 175.936 254.494,175.483 255.225,175.241 255.375 C 174.998 255.525,174.800 255.975,174.800 256.375 C 174.800 256.775,174.520 257.335,174.177 257.619 C 173.834 257.904,173.287 258.691,172.961 259.368 C 172.206 260.937,171.000 263.065,169.994 264.600 C 169.562 265.260,168.989 266.250,168.720 266.800 C 168.452 267.350,167.910 268.229,167.516 268.754 C 167.122 269.279,166.800 270.044,166.800 270.454 C 166.800 270.864,166.611 271.200,166.380 271.200 C 166.148 271.200,165.683 271.785,165.345 272.500 C 164.503 274.283,163.527 276.010,162.697 277.189 C 162.313 277.733,162.000 278.421,162.000 278.718 C 162.000 279.014,161.730 279.527,161.400 279.857 C 159.928 281.329,161.289 286.403,163.677 288.347 C 167.227 291.238,174.468 289.656,175.441 285.778 C 175.568 285.272,175.909 284.767,176.198 284.656 C 176.488 284.545,176.846 283.902,176.994 283.227 C 177.142 282.552,177.427 282.000,177.626 282.000 C 177.826 282.000,178.243 281.392,178.554 280.649 C 178.864 279.906,179.317 279.175,179.559 279.025 C 179.802 278.875,180.000 278.425,180.000 278.025 C 180.000 277.625,180.280 277.065,180.623 276.781 C 180.966 276.496,181.513 275.709,181.839 275.032 C 182.594 273.463,183.800 271.335,184.806 269.800 C 185.238 269.140,185.811 268.150,186.080 267.600 C 186.348 267.050,186.890 266.171,187.284 265.646 C 187.678 265.121,188.000 264.356,188.000 263.946 C 188.000 263.536,188.189 263.200,188.420 263.200 C 188.652 263.200,189.086 262.615,189.385 261.900 C 189.685 261.185,190.080 260.452,190.265 260.270 C 190.594 259.946,193.108 255.571,194.098 253.600 C 194.374 253.050,195.185 251.704,195.900 250.609 C 196.615 249.514,197.200 248.417,197.200 248.171 C 197.200 247.925,197.560 247.398,198.000 247.000 C 198.440 246.602,198.800 246.121,198.800 245.932 C 198.800 245.623,199.426 244.488,202.260 239.664 C 202.733 238.859,203.693 237.075,204.393 235.700 C 205.094 234.325,205.818 233.200,206.002 233.200 C 206.187 233.200,206.546 232.570,206.800 231.800 C 207.054 231.030,207.416 230.400,207.604 230.400 C 207.792 230.400,208.070 229.995,208.220 229.500 C 208.371 229.005,208.729 228.330,209.016 228.000 C 209.303 227.670,209.661 226.905,209.812 226.300 C 209.963 225.695,210.256 225.200,210.464 225.200 C 210.671 225.200,211.109 224.615,211.437 223.900 C 211.764 223.185,212.468 221.880,213.001 221.000 C 213.533 220.120,214.173 218.905,214.423 218.300 C 214.674 217.695,215.019 217.200,215.191 217.200 C 215.362 217.200,215.742 216.615,216.035 215.900 C 216.327 215.185,216.799 214.362,217.083 214.071 C 217.367 213.781,217.600 213.313,217.600 213.033 C 217.600 212.752,217.960 212.107,218.400 211.600 C 218.840 211.093,219.200 210.463,219.200 210.201 C 219.200 209.939,219.560 209.398,220.000 209.000 C 220.440 208.602,220.800 207.955,220.800 207.562 C 220.800 207.169,220.998 206.725,221.241 206.575 C 221.483 206.425,221.940 205.739,222.255 205.051 C 222.570 204.363,223.445 202.810,224.198 201.600 C 224.952 200.390,225.576 199.175,225.584 198.900 C 225.593 198.625,225.758 198.400,225.951 198.400 C 226.145 198.400,226.539 197.815,226.828 197.100 C 227.117 196.385,227.569 195.667,227.832 195.505 C 228.095 195.343,228.427 194.747,228.569 194.182 C 228.711 193.616,229.428 192.299,230.162 191.254 C 230.896 190.210,231.617 188.976,231.764 188.514 C 231.911 188.051,232.294 187.454,232.615 187.187 C 232.937 186.920,233.200 186.386,233.200 186.000 C 233.200 185.614,233.480 185.065,233.823 184.781 C 234.166 184.496,234.702 183.709,235.015 183.032 C 235.629 181.702,236.202 180.754,237.300 179.251 C 237.685 178.723,238.000 177.978,238.000 177.595 C 238.000 177.212,238.270 176.674,238.600 176.400 C 240.646 174.702,237.661 166.833,234.954 166.787 C 234.539 166.780,233.851 166.510,233.424 166.187 C 232.996 165.864,232.176 165.600,231.600 165.600 C 231.024 165.600,230.204 165.864,229.776 166.187 M236.233 168.309 C 236.985 168.909,237.600 169.619,237.600 169.886 C 237.600 170.154,237.901 171.004,238.269 171.775 C 238.962 173.229,238.294 176.664,236.979 178.400 C 236.729 178.730,235.231 181.250,233.649 184.000 C 232.067 186.750,230.605 189.270,230.400 189.600 C 230.194 189.930,229.075 191.878,227.913 193.929 C 226.751 195.980,225.404 198.320,224.921 199.129 C 224.437 199.938,223.839 201.050,223.593 201.599 C 223.346 202.149,222.901 202.869,222.604 203.199 C 222.306 203.530,221.584 204.700,220.998 205.800 C 220.413 206.900,219.543 208.459,219.067 209.264 C 218.590 210.070,217.609 211.780,216.886 213.064 C 216.163 214.349,215.408 215.670,215.208 216.000 C 214.745 216.763,208.799 227.019,208.000 228.433 C 207.055 230.106,205.628 232.543,205.209 233.200 C 204.865 233.740,202.730 237.478,199.400 243.372 C 198.740 244.540,198.006 245.744,197.768 246.048 C 197.531 246.352,196.836 247.590,196.224 248.800 C 195.611 250.010,194.861 251.284,194.555 251.631 C 194.250 251.979,194.000 252.450,194.000 252.678 C 194.000 252.906,193.664 253.521,193.253 254.046 C 192.843 254.571,191.988 255.949,191.353 257.109 C 190.719 258.270,189.796 259.890,189.303 260.709 C 188.809 261.529,188.150 262.740,187.838 263.400 C 187.526 264.060,187.120 264.748,186.935 264.930 C 186.751 265.111,185.970 266.400,185.200 267.792 C 184.430 269.185,182.000 273.410,179.800 277.180 C 177.600 280.951,175.548 284.523,175.241 285.118 C 171.746 291.881,161.600 289.937,161.600 282.504 C 161.600 281.139,162.782 277.713,163.441 277.166 C 163.749 276.911,164.000 276.490,164.000 276.231 C 164.000 275.972,164.224 275.536,164.497 275.263 C 164.771 274.989,165.626 273.615,166.397 272.210 C 167.601 270.017,176.542 254.533,177.606 252.800 C 177.808 252.470,178.925 250.522,180.087 248.471 C 181.249 246.420,182.593 244.080,183.073 243.271 C 183.552 242.462,184.227 241.260,184.572 240.600 C 184.916 239.940,185.559 238.860,186.000 238.200 C 186.441 237.540,187.084 236.460,187.428 235.800 C 187.773 235.140,188.491 233.880,189.025 233.000 C 189.558 232.120,190.273 230.860,190.613 230.200 C 190.954 229.540,191.630 228.336,192.116 227.524 C 192.602 226.712,193.809 224.642,194.798 222.924 C 195.788 221.206,196.778 219.497,196.998 219.126 C 197.219 218.755,197.991 217.405,198.714 216.126 C 199.437 214.847,200.189 213.530,200.387 213.200 C 200.584 212.870,203.233 208.313,206.273 203.074 C 209.313 197.835,212.193 192.885,212.673 192.074 C 213.152 191.263,213.827 190.060,214.172 189.400 C 214.516 188.740,215.153 187.660,215.586 187.000 C 216.020 186.340,216.660 185.260,217.009 184.600 C 218.197 182.353,219.093 180.810,219.507 180.305 C 219.734 180.027,220.523 178.668,221.260 177.283 C 225.827 168.708,226.919 167.422,230.119 166.853 C 232.361 166.455,234.567 166.980,236.233 168.309 M129.800 172.400 C 129.402 172.840,128.930 173.200,128.751 173.200 C 128.573 173.200,127.797 173.830,127.027 174.600 C 126.257 175.370,125.506 176.000,125.359 176.000 C 125.212 176.000,124.694 176.405,124.209 176.900 C 123.723 177.395,122.452 178.520,121.385 179.400 C 118.365 181.890,117.649 182.507,116.206 183.863 C 115.467 184.557,114.600 185.277,114.280 185.463 C 113.959 185.648,112.564 186.790,111.179 188.000 C 109.795 189.210,108.231 190.560,107.705 191.000 C 107.179 191.440,106.027 192.473,105.145 193.296 C 104.264 194.119,103.301 194.929,103.005 195.096 C 102.408 195.433,98.343 198.894,96.892 200.300 C 96.381 200.795,95.801 201.200,95.602 201.200 C 95.403 201.200,95.096 201.450,94.920 201.756 C 94.744 202.061,93.700 203.035,92.600 203.920 C 91.500 204.805,90.060 205.997,89.400 206.568 C 87.341 208.351,84.794 210.577,84.193 211.121 C 83.875 211.407,82.479 212.577,81.089 213.721 C 75.913 217.981,71.908 221.866,70.855 223.647 C 68.587 227.486,70.451 233.790,74.805 237.004 C 75.404 237.446,76.795 238.616,77.895 239.604 C 78.996 240.592,80.300 241.670,80.795 242.000 C 81.289 242.330,82.347 243.238,83.147 244.018 C 83.946 244.798,86.126 246.688,87.990 248.218 C 89.855 249.748,91.668 251.270,92.020 251.600 C 93.018 252.537,96.741 255.710,99.601 258.062 C 102.507 260.451,104.534 262.206,105.769 263.400 C 106.224 263.840,108.127 265.445,109.998 266.967 C 111.869 268.489,113.544 269.974,113.720 270.267 C 113.896 270.560,114.209 270.800,114.416 270.800 C 114.624 270.800,115.290 271.318,115.897 271.951 C 116.503 272.585,118.621 274.430,120.602 276.051 C 124.812 279.497,126.643 281.077,127.778 282.244 C 128.230 282.709,129.050 283.228,129.600 283.398 C 130.150 283.568,130.955 283.954,131.389 284.254 C 135.785 287.297,142.913 279.758,140.827 274.272 C 140.390 273.122,135.904 268.400,135.249 268.400 C 135.002 268.400,134.800 268.252,134.800 268.072 C 134.800 267.891,133.585 266.781,132.100 265.605 C 129.217 263.321,129.060 263.187,126.592 260.894 C 125.707 260.072,123.457 258.149,121.592 256.620 C 119.726 255.091,117.915 253.561,117.566 253.220 C 117.217 252.879,116.164 251.970,115.226 251.200 C 114.287 250.430,113.222 249.516,112.860 249.169 C 112.497 248.822,111.082 247.620,109.715 246.498 C 106.371 243.755,106.526 243.887,103.771 241.413 C 102.435 240.214,100.185 238.309,98.771 237.180 C 97.357 236.051,96.056 234.874,95.880 234.564 C 95.704 234.254,95.418 234.000,95.244 234.000 C 94.644 234.000,88.392 228.264,88.412 227.731 C 88.419 227.549,89.184 226.822,90.112 226.116 C 91.041 225.409,92.467 224.239,93.283 223.516 C 94.099 222.792,95.529 221.570,96.461 220.800 C 97.393 220.030,98.437 219.130,98.782 218.800 C 99.127 218.470,99.947 217.781,100.604 217.269 C 102.735 215.611,105.730 213.036,107.315 211.500 C 108.167 210.675,109.023 210.000,109.218 210.000 C 109.412 210.000,109.765 209.640,110.000 209.200 C 110.235 208.760,110.682 208.400,110.991 208.400 C 111.301 208.400,111.790 208.084,112.077 207.697 C 112.365 207.310,113.590 206.190,114.800 205.207 C 116.010 204.225,117.367 203.056,117.815 202.610 C 118.631 201.799,120.565 200.186,123.213 198.108 C 123.990 197.499,124.993 196.640,125.442 196.200 C 126.490 195.174,129.485 192.609,134.549 188.400 C 142.499 181.793,143.400 176.880,137.464 172.500 C 135.765 171.246,130.902 171.183,129.800 172.400 M262.536 172.500 C 257.940 175.892,257.489 180.508,261.369 184.435 C 264.061 187.159,268.636 191.200,269.028 191.200 C 269.191 191.200,270.004 191.875,270.834 192.700 C 271.664 193.525,273.196 194.920,274.237 195.800 C 275.278 196.680,276.326 197.580,276.565 197.800 C 276.804 198.020,277.630 198.673,278.400 199.252 C 279.170 199.831,280.340 200.794,281.000 201.392 C 284.055 204.163,284.811 204.816,287.980 207.421 C 289.839 208.949,291.743 210.560,292.211 211.000 C 293.377 212.096,295.319 213.764,298.400 216.316 C 299.830 217.500,301.060 218.633,301.133 218.835 C 301.207 219.036,301.446 219.200,301.665 219.200 C 301.884 219.200,302.752 219.875,303.595 220.700 C 305.291 222.361,308.079 224.752,310.187 226.355 C 311.535 227.380,311.778 228.742,310.686 229.154 C 310.461 229.238,309.500 230.048,308.551 230.954 C 306.791 232.632,306.376 232.995,303.011 235.800 C 298.648 239.436,295.811 241.883,294.352 243.266 C 293.502 244.072,292.643 244.792,292.444 244.866 C 291.981 245.037,285.587 250.525,283.548 252.500 C 282.697 253.325,281.865 254.005,281.700 254.011 C 281.535 254.018,280.563 254.783,279.541 255.711 C 278.518 256.640,276.840 258.120,275.811 259.000 C 274.783 259.880,273.640 260.879,273.271 261.220 C 272.902 261.561,271.071 263.091,269.202 264.620 C 267.334 266.149,265.213 267.985,264.489 268.700 C 263.765 269.415,263.073 270.000,262.951 270.000 C 262.517 270.000,260.400 272.204,260.400 272.656 C 260.400 272.908,260.149 273.211,259.841 273.329 C 258.645 273.788,258.748 280.800,259.951 280.800 C 260.127 280.800,260.460 281.214,260.691 281.720 C 261.208 282.855,264.852 284.800,266.462 284.800 C 267.799 284.800,272.000 282.948,272.000 282.358 C 272.000 282.147,272.292 281.863,272.648 281.726 C 273.004 281.590,273.898 280.875,274.634 280.139 C 275.371 279.402,276.150 278.800,276.367 278.800 C 276.583 278.800,276.904 278.555,277.080 278.255 C 277.256 277.955,278.570 276.759,280.000 275.596 C 281.430 274.434,282.780 273.283,283.000 273.040 C 283.220 272.796,284.390 271.788,285.600 270.800 C 286.810 269.812,287.980 268.809,288.200 268.571 C 288.420 268.333,289.410 267.524,290.400 266.772 C 291.390 266.020,292.761 264.819,293.447 264.102 C 294.133 263.386,294.854 262.800,295.050 262.800 C 295.246 262.800,295.961 262.194,296.641 261.454 C 297.320 260.714,298.063 260.039,298.291 259.954 C 298.777 259.774,301.762 257.245,304.021 255.100 C 304.890 254.275,305.714 253.600,305.853 253.600 C 305.992 253.600,306.668 253.003,307.356 252.274 C 308.044 251.545,308.901 250.780,309.260 250.574 C 309.951 250.179,312.642 247.939,315.237 245.600 C 317.323 243.720,317.783 243.326,320.608 241.000 C 328.786 234.267,330.000 232.582,330.000 227.967 C 330.000 224.760,327.761 220.000,326.253 220.000 C 326.113 220.000,325.414 219.384,324.699 218.632 C 323.985 217.880,322.312 216.395,320.983 215.332 C 318.473 213.326,318.361 213.231,315.411 210.600 C 313.055 208.499,312.657 208.159,309.792 205.800 C 307.284 203.735,307.134 203.607,304.295 201.107 C 303.363 200.285,302.330 199.376,302.000 199.087 C 299.195 196.624,296.837 194.800,296.457 194.800 C 296.206 194.800,296.000 194.530,296.000 194.200 C 296.000 193.870,295.847 193.600,295.659 193.600 C 295.472 193.600,294.781 193.105,294.123 192.500 C 292.064 190.604,289.818 188.672,287.268 186.600 C 285.914 185.500,284.804 184.465,284.803 184.300 C 284.801 184.135,284.596 184.000,284.346 184.000 C 284.096 184.000,283.501 183.595,283.024 183.100 C 281.950 181.985,280.169 180.430,276.801 177.665 C 275.370 176.492,274.140 175.367,274.067 175.165 C 273.993 174.964,273.685 174.800,273.381 174.800 C 273.077 174.800,272.635 174.440,272.400 174.000 C 272.165 173.560,271.748 173.200,271.475 173.200 C 271.201 173.200,270.670 172.840,270.293 172.400 C 269.247 171.178,264.240 171.243,262.536 172.500 M136.932 172.967 C 142.128 176.160,141.794 181.597,136.118 186.211 C 133.864 188.044,129.726 191.588,128.425 192.800 C 128.070 193.130,126.259 194.660,124.400 196.200 C 122.541 197.740,120.729 199.270,120.374 199.600 C 119.398 200.508,115.836 203.561,111.600 207.120 C 108.275 209.914,107.176 210.857,104.419 213.288 C 104.099 213.569,102.659 214.767,101.219 215.950 C 99.778 217.132,98.510 218.224,98.400 218.376 C 98.290 218.529,95.860 220.610,93.000 223.003 C 87.306 227.765,87.116 228.120,89.297 229.926 C 92.364 232.466,96.631 236.157,97.000 236.589 C 97.220 236.847,97.691 237.225,98.046 237.429 C 98.700 237.805,102.668 241.131,104.214 242.600 C 105.037 243.382,109.052 246.807,110.543 248.000 C 111.419 248.700,113.875 250.802,116.178 252.822 C 117.070 253.604,119.420 255.610,121.400 257.280 C 123.380 258.950,125.630 260.870,126.400 261.546 C 128.385 263.288,128.551 263.429,131.315 265.708 C 132.682 266.835,133.890 267.858,134.000 267.981 C 134.110 268.104,135.284 269.132,136.610 270.264 C 141.109 274.108,141.883 277.724,138.942 281.159 C 135.109 285.638,131.631 284.973,124.200 278.344 C 123.540 277.755,121.470 275.981,119.600 274.402 C 117.730 272.823,115.047 270.511,113.637 269.265 C 112.227 268.019,110.528 266.596,109.862 266.102 C 109.195 265.608,108.548 265.064,108.425 264.893 C 108.301 264.722,107.128 263.686,105.818 262.591 C 104.508 261.496,103.148 260.330,102.796 260.000 C 102.443 259.670,100.112 257.690,97.616 255.600 C 95.120 253.510,92.593 251.350,92.001 250.800 C 91.408 250.250,89.710 248.810,88.227 247.600 C 86.743 246.390,84.961 244.883,84.265 244.250 C 83.569 243.618,81.020 241.434,78.600 239.398 C 67.796 230.304,67.548 225.821,77.400 217.677 C 79.160 216.222,81.950 213.851,83.600 212.408 C 85.250 210.965,87.676 208.887,88.991 207.792 C 90.306 206.696,91.671 205.530,92.024 205.200 C 92.378 204.870,94.182 203.314,96.033 201.743 C 97.885 200.172,101.020 197.498,103.000 195.801 C 104.980 194.105,108.580 191.051,111.000 189.015 C 113.420 186.979,115.858 184.882,116.417 184.356 C 116.976 183.830,118.956 182.146,120.817 180.613 C 122.678 179.080,124.830 177.224,125.600 176.489 C 130.152 172.141,133.763 171.019,136.932 172.967 M269.320 172.655 C 270.571 173.296,274.203 176.083,275.002 177.016 C 275.224 177.274,276.549 178.404,277.948 179.527 C 280.392 181.489,284.203 184.756,286.369 186.748 C 286.936 187.269,288.029 188.169,288.797 188.748 C 290.129 189.750,292.199 191.504,293.582 192.800 C 293.935 193.130,295.208 194.202,296.411 195.182 C 297.615 196.162,299.418 197.692,300.418 198.582 C 302.446 200.387,305.678 203.148,308.400 205.401 C 310.721 207.323,314.785 210.829,315.585 211.600 C 315.928 211.930,317.646 213.364,319.404 214.787 C 331.969 224.956,332.864 229.975,323.489 237.705 C 322.120 238.834,320.908 239.888,320.796 240.048 C 320.683 240.207,319.853 240.937,318.952 241.669 C 316.655 243.533,310.439 248.756,309.000 250.030 C 306.016 252.672,303.947 254.458,300.600 257.280 C 297.016 260.303,294.742 262.265,293.600 263.319 C 293.270 263.623,291.920 264.735,290.600 265.789 C 289.280 266.843,287.912 267.997,287.561 268.353 C 287.209 268.709,285.424 270.260,283.593 271.800 C 281.763 273.340,278.180 276.376,275.632 278.547 C 269.335 283.913,266.872 284.884,263.618 283.281 C 259.946 281.473,258.416 276.580,260.542 273.447 C 261.707 271.731,261.783 271.658,266.195 267.989 C 270.161 264.692,271.672 263.397,274.382 260.976 C 275.382 260.082,276.702 258.971,277.316 258.505 C 278.376 257.702,282.594 254.088,283.974 252.800 C 284.328 252.470,285.693 251.300,287.007 250.200 C 288.321 249.100,291.287 246.570,293.598 244.578 C 295.909 242.586,298.880 240.084,300.200 239.018 C 301.520 237.953,303.950 235.859,305.600 234.366 C 307.250 232.873,309.455 230.986,310.500 230.172 C 312.785 228.393,312.853 227.765,310.931 226.198 C 309.423 224.968,307.066 222.955,303.200 219.594 C 301.990 218.542,299.470 216.388,297.600 214.808 C 295.730 213.227,292.501 210.464,290.425 208.667 C 288.349 206.870,286.170 205.040,285.584 204.600 C 284.997 204.160,283.365 202.789,281.958 201.554 C 278.871 198.843,268.706 190.170,265.389 187.417 C 260.530 183.383,259.600 182.060,259.600 179.185 C 259.600 174.067,264.996 170.442,269.320 172.655 " stroke="none" fill="#bce6fc" fill-rule="evenodd"></path></g></svg>